<svg width="35" height="35" viewBox="0 0 35 35" fill="none" xmlns="http://www.w3.org/2000/svg">
<rect width="35" height="35" rx="10" fill="#454545"/>
<path fill-rule="evenodd" clip-rule="evenodd" d="M9.0132 15.1513C9 15.6902 9 16.3021 9 17V19C9 21.8284 9 23.2426 9.87868 24.1213C10.7574 25 12.1716 25 15 25H21C23.8284 25 25.2426 25 26.1213 24.1213C27 23.2426 27 21.8284 27 19V17C27 16.3021 27 15.6902 26.9868 15.1513L18.9713 19.6044C18.3672 19.9399 17.6328 19.9399 17.0287 19.6044L9.0132 15.1513ZM9.24297 13.0297C9.32584 13.0505 9.4074 13.0824 9.48564 13.1258L18 17.856L26.5144 13.1258C26.5926 13.0824 26.6742 13.0505 26.757 13.0297C26.6271 12.5562 26.4276 12.1849 26.1213 11.8787C25.2426 11 23.8284 11 21 11H15C12.1716 11 10.7574 11 9.87868 11.8787C9.57245 12.1849 9.37294 12.5562 9.24297 13.0297Z" fill="white"/>
</svg>
