<svg width="120" height="36" viewBox="0 0 120 36" fill="none" xmlns="http://www.w3.org/2000/svg">
<rect y="0.5" width="120" height="35" rx="5" fill="#454545"/>
<path d="M93.8443 26.7498H95.4771V15.8109H93.8443V26.7498ZM108.55 19.7515L106.679 24.4939H106.623L104.68 19.7515H102.922L105.835 26.3796L104.174 30.0669H105.876L110.366 19.7515H108.55ZM99.2903 25.5073C98.7565 25.5073 98.0102 25.2397 98.0102 24.5784C98.0102 23.7341 98.9394 23.4104 99.7409 23.4104C100.458 23.4104 100.797 23.5649 101.233 23.7762C101.106 24.7896 100.234 25.5073 99.2903 25.5073ZM99.488 19.5122C98.3059 19.5122 97.0818 20.0331 96.5752 21.187L98.0242 21.792C98.3339 21.187 98.9106 20.9902 99.5161 20.9902C100.36 20.9902 101.219 21.4963 101.233 22.3973V22.5098C100.937 22.3409 100.304 22.0877 99.53 22.0877C97.9673 22.0877 96.3774 22.9459 96.3774 24.5503C96.3774 26.0139 97.6584 26.9569 99.0934 26.9569C100.191 26.9569 100.797 26.4643 101.176 25.8871H101.233V26.732H102.81V22.5378C102.81 20.5957 101.359 19.5122 99.488 19.5122ZM89.3975 21.0831H87.0753V17.3336H89.3975C90.6182 17.3336 91.3112 18.344 91.3112 19.2083C91.3112 20.056 90.6182 21.0831 89.3975 21.0831ZM89.3555 15.8109H85.4432V26.7498H87.0753V22.6055H89.3555C91.165 22.6055 92.9439 21.2957 92.9439 19.2083C92.9439 17.1213 91.165 15.8109 89.3555 15.8109ZM68.0218 25.5094C66.8939 25.5094 65.9498 24.5646 65.9498 23.2682C65.9498 21.9568 66.8939 20.9986 68.0218 20.9986C69.1354 20.9986 70.0094 21.9568 70.0094 23.2682C70.0094 24.5646 69.1354 25.5094 68.0218 25.5094ZM69.8966 20.364H69.8402C69.4738 19.9271 68.7686 19.5324 67.881 19.5324C66.0199 19.5324 64.3144 21.1679 64.3144 23.2682C64.3144 25.3542 66.0199 26.9753 67.881 26.9753C68.7686 26.9753 69.4738 26.5805 69.8402 26.1297H69.8966V26.665C69.8966 28.0893 69.1354 28.8501 67.909 28.8501C66.9086 28.8501 66.2883 28.1313 66.0343 27.5253L64.6107 28.1173C65.0192 29.1037 66.1043 30.3164 67.909 30.3164C69.8265 30.3164 71.4476 29.1885 71.4476 26.4394V19.758H69.8966V20.364ZM72.5756 26.7498H74.2101V15.8109H72.5756V26.7498ZM76.6208 23.1411C76.5787 21.7031 77.735 20.9703 78.5663 20.9703C79.215 20.9703 79.7642 21.2947 79.9482 21.7595L76.6208 23.1411ZM81.6954 21.9003C81.3854 21.0691 80.441 19.5324 78.5098 19.5324C76.5924 19.5324 74.9996 21.0407 74.9996 23.2539C74.9996 25.3402 76.5787 26.9753 78.6927 26.9753C80.3983 26.9753 81.3854 25.9325 81.7945 25.3261L80.5257 24.4802C80.1027 25.1006 79.525 25.5094 78.6927 25.5094C77.8615 25.5094 77.2692 25.1286 76.8891 24.3815L81.8646 22.3235L81.6954 21.9003ZM42.0511 20.6743V22.253H45.8289C45.7161 23.1411 45.4201 23.7895 44.969 24.2406C44.419 24.7902 43.5591 25.3966 42.0511 25.3966C39.7251 25.3966 37.9068 23.5218 37.9068 21.1959C37.9068 18.8699 39.7251 16.9949 42.0511 16.9949C43.3058 16.9949 44.2218 17.4884 44.8985 18.1228L46.0125 17.0089C45.0678 16.1069 43.8134 15.4161 42.0511 15.4161C38.8648 15.4161 36.1865 18.01 36.1865 21.1959C36.1865 24.3815 38.8648 26.9753 42.0511 26.9753C43.7707 26.9753 45.0678 26.4114 46.0826 25.3542C47.1258 24.311 47.4501 22.8451 47.4501 21.6608C47.4501 21.2947 47.4217 20.9563 47.3653 20.6743H42.0511ZM51.7452 25.5094C50.6172 25.5094 49.6445 24.579 49.6445 23.2539C49.6445 21.9147 50.6172 20.9986 51.7452 20.9986C52.8727 20.9986 53.8454 21.9147 53.8454 23.2539C53.8454 24.579 52.8727 25.5094 51.7452 25.5094ZM51.7452 19.5324C49.6865 19.5324 48.0093 21.0971 48.0093 23.2539C48.0093 25.3966 49.6865 26.9753 51.7452 26.9753C53.8031 26.9753 55.4806 25.3966 55.4806 23.2539C55.4806 21.0971 53.8031 19.5324 51.7452 19.5324ZM59.8939 25.5094C58.7667 25.5094 57.7936 24.579 57.7936 23.2539C57.7936 21.9147 58.7667 20.9986 59.8939 20.9986C61.0218 20.9986 61.9942 21.9147 61.9942 23.2539C61.9942 24.579 61.0218 25.5094 59.8939 25.5094ZM59.8939 19.5324C57.8359 19.5324 56.1588 21.0971 56.1588 23.2539C56.1588 25.3966 57.8359 26.9753 59.8939 26.9753C61.9526 26.9753 63.6298 25.3966 63.6298 23.2539C63.6298 21.0971 61.9526 19.5324 59.8939 19.5324Z" fill="white"/>
<path d="M39.1943 12.0801C38.4099 12.0801 37.7351 11.804 37.1911 11.2601C36.6468 10.7158 36.3711 10.0343 36.3711 9.24179C36.3711 8.44931 36.6469 7.769 37.1911 7.22348C37.7351 6.67945 38.4099 6.40351 39.1943 6.40351C39.594 6.40351 39.967 6.47254 40.3235 6.61628C40.6801 6.76003 40.9718 6.95959 41.2015 7.22075L41.2557 7.28244L40.6437 7.89426L40.5825 7.81906C40.4302 7.63186 40.2364 7.48642 39.9909 7.38071C39.7463 7.27525 39.4783 7.22656 39.1943 7.22656C38.6418 7.22656 38.1833 7.4142 37.8005 7.79565C37.8004 7.79574 37.8002 7.79573 37.8001 7.79583C37.426 8.18498 37.2379 8.65877 37.2379 9.2418C37.2379 9.82527 37.4262 10.2992 37.8008 10.6885C38.1837 11.0697 38.6421 11.2584 39.1943 11.2584C39.7001 11.2584 40.1185 11.1172 40.4474 10.8376H40.4475C40.7537 10.5775 40.9375 10.2259 41.0024 9.77773H39.1068V8.97109H41.8217L41.8333 9.04492C41.8556 9.18672 41.8713 9.3236 41.8713 9.45508C41.8713 10.2077 41.6418 10.8221 41.1916 11.2741C40.6834 11.8129 40.0151 12.0801 39.1943 12.0801L39.1943 12.0801ZM62.7684 12.0801C61.9827 12.0801 61.3159 11.8039 60.7788 11.2601C60.7788 11.26 60.7787 11.26 60.7786 11.2599C60.7786 11.2599 60.7785 11.2598 60.7785 11.2598C60.2407 10.7218 59.9739 10.0401 59.9739 9.24178C59.9739 8.44344 60.2407 7.76176 60.7785 7.22381C60.7785 7.22376 60.7785 7.22373 60.7786 7.22364L60.7788 7.22346C61.3159 6.67956 61.9827 6.40349 62.7684 6.40349C63.5525 6.40349 64.2196 6.67963 64.7566 7.23167C65.2946 7.76953 65.5616 8.44992 65.5616 9.24178C65.5616 10.0401 65.2947 10.7218 64.757 11.2597L64.7568 11.2599C64.2195 11.8041 63.5462 12.0801 62.7684 12.0801L62.7684 12.0801ZM42.6482 11.9625V6.52109H42.7357H45.898V7.34414H43.5V8.83847H45.6628V9.64511H43.5V11.1408H45.898V11.9625H42.6482ZM47.8869 11.9625V7.34414H46.4158V6.52109H50.2098V7.34414H50.1223H48.7387V11.9625H47.8869ZM52.6345 11.9625V6.52109H53.4862V6.60859V11.9625H52.6345ZM55.6303 11.9625V7.34414H54.1592V6.52109H57.9532V7.34414H57.8657H56.4821V11.9625H55.6303ZM66.3176 11.9625V6.52109H67.2781L69.7224 10.4343L69.7014 9.69143V6.52109H70.5532V11.9625H69.7103L67.1484 7.85153L67.1694 8.59392V8.59511V11.9625H66.3176ZM62.7684 11.2584C63.3209 11.2584 63.772 11.0699 64.1397 10.6891L64.1402 10.6884L64.1407 10.6879C64.5137 10.3149 64.6962 9.83469 64.6962 9.24176C64.6962 8.65028 64.5136 8.16847 64.1407 7.79562L64.1402 7.7951L64.1397 7.79457C63.7721 7.41383 63.3211 7.2265 62.7684 7.2265C62.2148 7.2265 61.7638 7.41351 61.3893 7.79423L61.3889 7.79458C61.0229 8.17648 60.8407 8.65045 60.8407 9.24175C60.8407 9.83449 61.0228 10.3069 61.3889 10.6889L61.3893 10.6893C61.7639 11.0701 62.2149 11.2584 62.7684 11.2584V11.2584Z" fill="white"/>
<path opacity="0.9" d="M18.4016 17.4954L9.08594 27.383C9.08629 27.385 9.08699 27.3867 9.08734 27.3888C9.37302 28.4624 10.3536 29.2529 11.5175 29.2529C11.9827 29.2529 12.4195 29.1271 12.7941 28.9063L12.8238 28.8889L23.3098 22.8381L18.4016 17.4954Z" fill="white"/>
<path opacity="0.7" d="M18.4199 17.5154L23.2913 13.1807L27.8183 15.8051L27.8273 15.8112C28.6089 16.2388 29.1377 17.067 29.1377 18.0199C29.1377 18.9796 28.6017 19.8119 27.8122 20.2382L23.309 22.8365L23.3004 22.8279L18.4199 17.5154Z" fill="white"/>
<path opacity="0.5" d="M18.4006 17.4949L9.08563 27.3817C9.02903 27.1761 9 26.9593 9 26.7353V9.26362C9 9.03901 9.02944 8.82271 9.08544 8.61621L18.4488 17.4888L18.4192 17.5151L18.4006 17.4949Z" fill="white"/>
<path opacity="0.4" d="M9.08503 8.6169C9.08494 8.61722 9.08511 8.61659 9.08503 8.6169L18.4488 17.4887L23.2888 13.1819L23.2913 13.1794L12.8172 7.10669C12.4365 6.87867 11.9922 6.74707 11.5167 6.74707C10.3529 6.74707 9.37093 7.53903 9.08516 8.61397C9.08481 8.61502 9.08503 8.61594 9.08503 8.6169Z" fill="white"/>
</svg>
