<svg width="35" height="35" viewBox="0 0 35 35" fill="none" xmlns="http://www.w3.org/2000/svg">
<rect width="35" height="35" rx="10" fill="#454545"/>
<path fill-rule="evenodd" clip-rule="evenodd" d="M18 27C22.9706 27 27 22.9706 27 18C27 13.0294 22.9706 9 18 9C13.0294 9 9 13.0294 9 18C9 22.9706 13.0294 27 18 27ZM19 12.5C19 11.9477 18.5523 11.5 18 11.5C17.4477 11.5 17 11.9477 17 12.5V17.75C17 18.4404 17.5596 19 18.25 19H21.5C22.0523 19 22.5 18.5523 22.5 18C22.5 17.4477 22.0523 17 21.5 17H19V12.5Z" fill="#FEFEFE"/>
</svg>
